<?xml version="1.0" encoding="UTF-8" standalone="no"?>
<!DOCTYPE svg PUBLIC "-//W3C//DTD SVG 1.1//EN"
 "http://www.w3.org/Graphics/SVG/1.1/DTD/svg11.dtd">
<!-- Generated by graphviz version 14.1.1 (20251213.1925)
 -->
<!-- Title: InheritanceTree Pages: 1 -->
<svg width="746pt" height="2697pt"
 viewBox="0.00 0.00 746.00 2697.00" xmlns="http://www.w3.org/2000/svg" xmlns:xlink="http://www.w3.org/1999/xlink">
<g id="graph0" class="graph" transform="scale(1 1) rotate(0) translate(4 2692.5)">
<title>InheritanceTree</title>
<polygon fill="white" stroke="none" points="-4,4 -4,-2692.5 742,-2692.5 742,4 -4,4"/>
<text xml:space="preserve" text-anchor="middle" x="369" y="-7.2" font-family="Times New Roman,serif" font-size="14.00">simple_tui &#45; Inheritance Hierarchy</text>
<!-- TASK_AI_CONFIG -->
<g id="node1" class="node">
<title>TASK_AI_CONFIG</title>
<path fill="none" stroke="black" d="M170.5,-60.5C170.5,-60.5 66,-60.5 66,-60.5 60,-60.5 54,-54.5 54,-48.5 54,-48.5 54,-36.5 54,-36.5 54,-30.5 60,-24.5 66,-24.5 66,-24.5 170.5,-24.5 170.5,-24.5 176.5,-24.5 182.5,-30.5 182.5,-36.5 182.5,-36.5 182.5,-48.5 182.5,-48.5 182.5,-54.5 176.5,-60.5 170.5,-60.5"/>
<text xml:space="preserve" text-anchor="middle" x="118.25" y="-37.45" font-family="Times New Roman,serif" font-size="14.00">TASK_AI_CONFIG</text>
</g>
<!-- TASK_AI_ROUTER -->
<g id="node2" class="node">
<title>TASK_AI_ROUTER</title>
<path fill="none" stroke="black" d="M172.38,-132.5C172.38,-132.5 64.12,-132.5 64.12,-132.5 58.12,-132.5 52.12,-126.5 52.12,-120.5 52.12,-120.5 52.12,-108.5 52.12,-108.5 52.12,-102.5 58.12,-96.5 64.12,-96.5 64.12,-96.5 172.38,-96.5 172.38,-96.5 178.38,-96.5 184.38,-102.5 184.38,-108.5 184.38,-108.5 184.38,-120.5 184.38,-120.5 184.38,-126.5 178.38,-132.5 172.38,-132.5"/>
<text xml:space="preserve" text-anchor="middle" x="118.25" y="-109.45" font-family="Times New Roman,serif" font-size="14.00">TASK_AI_ROUTER</text>
</g>
<!-- TASK_BLOCK_RESOLUTION -->
<g id="node3" class="node">
<title>TASK_BLOCK_RESOLUTION</title>
<path fill="none" stroke="black" d="M203.5,-204.5C203.5,-204.5 33,-204.5 33,-204.5 27,-204.5 21,-198.5 21,-192.5 21,-192.5 21,-180.5 21,-180.5 21,-174.5 27,-168.5 33,-168.5 33,-168.5 203.5,-168.5 203.5,-168.5 209.5,-168.5 215.5,-174.5 215.5,-180.5 215.5,-180.5 215.5,-192.5 215.5,-192.5 215.5,-198.5 209.5,-204.5 203.5,-204.5"/>
<text xml:space="preserve" text-anchor="middle" x="118.25" y="-181.45" font-family="Times New Roman,serif" font-size="14.00">TASK_BLOCK_RESOLUTION</text>
</g>
<!-- TASK_PROMPT_TEMPLATES -->
<g id="node4" class="node">
<title>TASK_PROMPT_TEMPLATES</title>
<path fill="none" stroke="black" d="M204.25,-276.5C204.25,-276.5 32.25,-276.5 32.25,-276.5 26.25,-276.5 20.25,-270.5 20.25,-264.5 20.25,-264.5 20.25,-252.5 20.25,-252.5 20.25,-246.5 26.25,-240.5 32.25,-240.5 32.25,-240.5 204.25,-240.5 204.25,-240.5 210.25,-240.5 216.25,-246.5 216.25,-252.5 216.25,-252.5 216.25,-264.5 216.25,-264.5 216.25,-270.5 210.25,-276.5 204.25,-276.5"/>
<text xml:space="preserve" text-anchor="middle" x="118.25" y="-253.45" font-family="Times New Roman,serif" font-size="14.00">TASK_PROMPT_TEMPLATES</text>
</g>
<!-- TASK_MANAGER_APP -->
<g id="node5" class="node">
<title>TASK_MANAGER_APP</title>
<path fill="none" stroke="black" d="M185.12,-348.5C185.12,-348.5 51.38,-348.5 51.38,-348.5 45.38,-348.5 39.38,-342.5 39.38,-336.5 39.38,-336.5 39.38,-324.5 39.38,-324.5 39.38,-318.5 45.38,-312.5 51.38,-312.5 51.38,-312.5 185.12,-312.5 185.12,-312.5 191.12,-312.5 197.12,-318.5 197.12,-324.5 197.12,-324.5 197.12,-336.5 197.12,-336.5 197.12,-342.5 191.12,-348.5 185.12,-348.5"/>
<text xml:space="preserve" text-anchor="middle" x="118.25" y="-325.45" font-family="Times New Roman,serif" font-size="14.00">TASK_MANAGER_APP</text>
</g>
<!-- TUI_APPLICATION -->
<g id="node6" class="node">
<title>TUI_APPLICATION</title>
<path fill="none" stroke="black" d="M172.38,-420.5C172.38,-420.5 64.12,-420.5 64.12,-420.5 58.12,-420.5 52.12,-414.5 52.12,-408.5 52.12,-408.5 52.12,-396.5 52.12,-396.5 52.12,-390.5 58.12,-384.5 64.12,-384.5 64.12,-384.5 172.38,-384.5 172.38,-384.5 178.38,-384.5 184.38,-390.5 184.38,-396.5 184.38,-396.5 184.38,-408.5 184.38,-408.5 184.38,-414.5 178.38,-420.5 172.38,-420.5"/>
<text xml:space="preserve" text-anchor="middle" x="118.25" y="-397.45" font-family="Times New Roman,serif" font-size="14.00">TUI_APPLICATION</text>
</g>
<!-- TUI_BACKEND -->
<g id="node7" class="node">
<title>TUI_BACKEND</title>
<path fill="none" stroke="black" d="M480.88,-492.5C480.88,-492.5 394.38,-492.5 394.38,-492.5 388.38,-492.5 382.38,-486.5 382.38,-480.5 382.38,-480.5 382.38,-468.5 382.38,-468.5 382.38,-462.5 388.38,-456.5 394.38,-456.5 394.38,-456.5 480.88,-456.5 480.88,-456.5 486.88,-456.5 492.88,-462.5 492.88,-468.5 492.88,-468.5 492.88,-480.5 492.88,-480.5 492.88,-486.5 486.88,-492.5 480.88,-492.5"/>
<text xml:space="preserve" text-anchor="middle" x="437.62" y="-469.45" font-family="Times New Roman,serif" font-size="14.00">TUI_BACKEND</text>
</g>
<!-- TUI_BACKEND_WINDOWS -->
<g id="node8" class="node">
<title>TUI_BACKEND_WINDOWS</title>
<path fill="none" stroke="black" d="M199,-492.5C199,-492.5 37.5,-492.5 37.5,-492.5 31.5,-492.5 25.5,-486.5 25.5,-480.5 25.5,-480.5 25.5,-468.5 25.5,-468.5 25.5,-462.5 31.5,-456.5 37.5,-456.5 37.5,-456.5 199,-456.5 199,-456.5 205,-456.5 211,-462.5 211,-468.5 211,-468.5 211,-480.5 211,-480.5 211,-486.5 205,-492.5 199,-492.5"/>
<text xml:space="preserve" text-anchor="middle" x="118.25" y="-469.45" font-family="Times New Roman,serif" font-size="14.00">TUI_BACKEND_WINDOWS</text>
</g>
<!-- TUI_BACKEND_WINDOWS&#45;&gt;TUI_BACKEND -->
<g id="edge1" class="edge">
<title>TUI_BACKEND_WINDOWS&#45;&gt;TUI_BACKEND</title>
<path fill="none" stroke="black" d="M211.49,-468.5C211.49,-468.5 370.78,-468.5 370.78,-468.5"/>
<polygon fill="none" stroke="black" points="370.78,-472 380.78,-468.5 370.78,-465 370.78,-472"/>
</g>
<!-- TUI_BACKEND_WINDOWS&#45;&gt;TUI_BACKEND -->
<g id="edge21" class="edge">
<title>TUI_BACKEND_WINDOWS&#45;&gt;TUI_BACKEND</title>
<path fill="none" stroke="black" d="M211.49,-480.5C211.49,-480.5 370.78,-480.5 370.78,-480.5"/>
<polygon fill="none" stroke="black" points="370.78,-484 380.78,-480.5 370.78,-477 370.78,-484"/>
</g>
<!-- TUI_BUFFER -->
<g id="node9" class="node">
<title>TUI_BUFFER</title>
<path fill="none" stroke="black" d="M154.38,-564.5C154.38,-564.5 82.12,-564.5 82.12,-564.5 76.12,-564.5 70.12,-558.5 70.12,-552.5 70.12,-552.5 70.12,-540.5 70.12,-540.5 70.12,-534.5 76.12,-528.5 82.12,-528.5 82.12,-528.5 154.38,-528.5 154.38,-528.5 160.38,-528.5 166.38,-534.5 166.38,-540.5 166.38,-540.5 166.38,-552.5 166.38,-552.5 166.38,-558.5 160.38,-564.5 154.38,-564.5"/>
<text xml:space="preserve" text-anchor="middle" x="118.25" y="-541.45" font-family="Times New Roman,serif" font-size="14.00">TUI_BUFFER</text>
</g>
<!-- TUI_CELL -->
<g id="node10" class="node">
<title>TUI_CELL</title>
<path fill="none" stroke="black" d="M145.75,-636.5C145.75,-636.5 90.75,-636.5 90.75,-636.5 84.75,-636.5 78.75,-630.5 78.75,-624.5 78.75,-624.5 78.75,-612.5 78.75,-612.5 78.75,-606.5 84.75,-600.5 90.75,-600.5 90.75,-600.5 145.75,-600.5 145.75,-600.5 151.75,-600.5 157.75,-606.5 157.75,-612.5 157.75,-612.5 157.75,-624.5 157.75,-624.5 157.75,-630.5 151.75,-636.5 145.75,-636.5"/>
<text xml:space="preserve" text-anchor="middle" x="118.25" y="-613.45" font-family="Times New Roman,serif" font-size="14.00">TUI_CELL</text>
</g>
<!-- TUI_COLOR -->
<g id="node11" class="node">
<title>TUI_COLOR</title>
<path fill="none" stroke="black" d="M151.75,-708.5C151.75,-708.5 84.75,-708.5 84.75,-708.5 78.75,-708.5 72.75,-702.5 72.75,-696.5 72.75,-696.5 72.75,-684.5 72.75,-684.5 72.75,-678.5 78.75,-672.5 84.75,-672.5 84.75,-672.5 151.75,-672.5 151.75,-672.5 157.75,-672.5 163.75,-678.5 163.75,-684.5 163.75,-684.5 163.75,-696.5 163.75,-696.5 163.75,-702.5 157.75,-708.5 151.75,-708.5"/>
<text xml:space="preserve" text-anchor="middle" x="118.25" y="-685.45" font-family="Times New Roman,serif" font-size="14.00">TUI_COLOR</text>
</g>
<!-- TUI_EVENT -->
<g id="node12" class="node">
<title>TUI_EVENT</title>
<path fill="none" stroke="black" d="M151,-780.5C151,-780.5 85.5,-780.5 85.5,-780.5 79.5,-780.5 73.5,-774.5 73.5,-768.5 73.5,-768.5 73.5,-756.5 73.5,-756.5 73.5,-750.5 79.5,-744.5 85.5,-744.5 85.5,-744.5 151,-744.5 151,-744.5 157,-744.5 163,-750.5 163,-756.5 163,-756.5 163,-768.5 163,-768.5 163,-774.5 157,-780.5 151,-780.5"/>
<text xml:space="preserve" text-anchor="middle" x="118.25" y="-757.45" font-family="Times New Roman,serif" font-size="14.00">TUI_EVENT</text>
</g>
<!-- TUI_STYLE -->
<g id="node13" class="node">
<title>TUI_STYLE</title>
<path fill="none" stroke="black" d="M149.88,-852.5C149.88,-852.5 86.62,-852.5 86.62,-852.5 80.62,-852.5 74.62,-846.5 74.62,-840.5 74.62,-840.5 74.62,-828.5 74.62,-828.5 74.62,-822.5 80.62,-816.5 86.62,-816.5 86.62,-816.5 149.88,-816.5 149.88,-816.5 155.88,-816.5 161.88,-822.5 161.88,-828.5 161.88,-828.5 161.88,-840.5 161.88,-840.5 161.88,-846.5 155.88,-852.5 149.88,-852.5"/>
<text xml:space="preserve" text-anchor="middle" x="118.25" y="-829.45" font-family="Times New Roman,serif" font-size="14.00">TUI_STYLE</text>
</g>
<!-- TUI_BOX -->
<g id="node14" class="node">
<title>TUI_BOX</title>
<path fill="none" stroke="black" d="M462.5,-960.5C462.5,-960.5 412.75,-960.5 412.75,-960.5 406.75,-960.5 400.75,-954.5 400.75,-948.5 400.75,-948.5 400.75,-936.5 400.75,-936.5 400.75,-930.5 406.75,-924.5 412.75,-924.5 412.75,-924.5 462.5,-924.5 462.5,-924.5 468.5,-924.5 474.5,-930.5 474.5,-936.5 474.5,-936.5 474.5,-948.5 474.5,-948.5 474.5,-954.5 468.5,-960.5 462.5,-960.5"/>
<text xml:space="preserve" text-anchor="middle" x="437.62" y="-937.45" font-family="Times New Roman,serif" font-size="14.00">TUI_BOX</text>
</g>
<!-- TUI_WIDGET -->
<g id="node15" class="node">
<title>TUI_WIDGET</title>
<path fill="none" stroke="black" d="M726,-1500.5C726,-1500.5 650.75,-1500.5 650.75,-1500.5 644.75,-1500.5 638.75,-1494.5 638.75,-1488.5 638.75,-1488.5 638.75,-1476.5 638.75,-1476.5 638.75,-1470.5 644.75,-1464.5 650.75,-1464.5 650.75,-1464.5 726,-1464.5 726,-1464.5 732,-1464.5 738,-1470.5 738,-1476.5 738,-1476.5 738,-1488.5 738,-1488.5 738,-1494.5 732,-1500.5 726,-1500.5"/>
<text xml:space="preserve" text-anchor="middle" x="688.38" y="-1477.45" font-family="Times New Roman,serif" font-size="14.00">TUI_WIDGET</text>
</g>
<!-- TUI_BOX&#45;&gt;TUI_WIDGET -->
<g id="edge2" class="edge">
<title>TUI_BOX&#45;&gt;TUI_WIDGET</title>
<path fill="none" stroke="black" d="M474.78,-936.5C553.72,-936.5 731,-936.5 731,-936.5 731,-936.5 731,-1452.51 731,-1452.51"/>
<polygon fill="none" stroke="black" points="727.5,-1452.51 731,-1462.51 734.5,-1452.51 727.5,-1452.51"/>
</g>
<!-- TUI_BOX&#45;&gt;TUI_WIDGET -->
<g id="edge22" class="edge">
<title>TUI_BOX&#45;&gt;TUI_WIDGET</title>
<path fill="none" stroke="black" d="M474.9,-948.5C552.66,-948.5 725,-948.5 725,-948.5 725,-948.5 725,-1452.6 725,-1452.6"/>
<polygon fill="none" stroke="black" points="721.5,-1452.6 725,-1462.6 728.5,-1452.6 721.5,-1452.6"/>
</g>
<!-- TUI_HBOX -->
<g id="node16" class="node">
<title>TUI_HBOX</title>
<path fill="none" stroke="black" d="M148,-996.5C148,-996.5 88.5,-996.5 88.5,-996.5 82.5,-996.5 76.5,-990.5 76.5,-984.5 76.5,-984.5 76.5,-972.5 76.5,-972.5 76.5,-966.5 82.5,-960.5 88.5,-960.5 88.5,-960.5 148,-960.5 148,-960.5 154,-960.5 160,-966.5 160,-972.5 160,-972.5 160,-984.5 160,-984.5 160,-990.5 154,-996.5 148,-996.5"/>
<text xml:space="preserve" text-anchor="middle" x="118.25" y="-973.45" font-family="Times New Roman,serif" font-size="14.00">TUI_HBOX</text>
</g>
<!-- TUI_HBOX&#45;&gt;TUI_BOX -->
<g id="edge3" class="edge">
<title>TUI_HBOX&#45;&gt;TUI_BOX</title>
<path fill="none" stroke="black" d="M160.26,-972.5C244.27,-972.5 425,-972.5 425,-972.5 425,-972.5 425,-971.35 425,-971.35"/>
<polygon fill="none" stroke="black" points="428.5,-972.5 425,-962.5 421.5,-972.5 428.5,-972.5"/>
</g>
<!-- TUI_HBOX&#45;&gt;TUI_BOX -->
<g id="edge23" class="edge">
<title>TUI_HBOX&#45;&gt;TUI_BOX</title>
<path fill="none" stroke="black" d="M160.27,-984.5C249.54,-984.5 450,-984.5 450,-984.5 450,-984.5 450,-972.07 450,-972.07"/>
<polygon fill="none" stroke="black" points="453.5,-972.07 450,-962.07 446.5,-972.07 453.5,-972.07"/>
</g>
<!-- TUI_VBOX -->
<g id="node17" class="node">
<title>TUI_VBOX</title>
<path fill="none" stroke="black" d="M148,-924.5C148,-924.5 88.5,-924.5 88.5,-924.5 82.5,-924.5 76.5,-918.5 76.5,-912.5 76.5,-912.5 76.5,-900.5 76.5,-900.5 76.5,-894.5 82.5,-888.5 88.5,-888.5 88.5,-888.5 148,-888.5 148,-888.5 154,-888.5 160,-894.5 160,-900.5 160,-900.5 160,-912.5 160,-912.5 160,-918.5 154,-924.5 148,-924.5"/>
<text xml:space="preserve" text-anchor="middle" x="118.25" y="-901.45" font-family="Times New Roman,serif" font-size="14.00">TUI_VBOX</text>
</g>
<!-- TUI_VBOX&#45;&gt;TUI_BOX -->
<g id="edge4" class="edge">
<title>TUI_VBOX&#45;&gt;TUI_BOX</title>
<path fill="none" stroke="black" d="M160.26,-900.5C244.27,-900.5 425,-900.5 425,-900.5 425,-900.5 425,-912.93 425,-912.93"/>
<polygon fill="none" stroke="black" points="421.5,-912.93 425,-922.93 428.5,-912.93 421.5,-912.93"/>
</g>
<!-- TUI_VBOX&#45;&gt;TUI_BOX -->
<g id="edge24" class="edge">
<title>TUI_VBOX&#45;&gt;TUI_BOX</title>
<path fill="none" stroke="black" d="M160.27,-912.5C249.54,-912.5 450,-912.5 450,-912.5 450,-912.5 450,-913.65 450,-913.65"/>
<polygon fill="none" stroke="black" points="446.5,-912.5 450,-922.5 453.5,-912.5 446.5,-912.5"/>
</g>
<!-- TUI_QUICK -->
<g id="node18" class="node">
<title>TUI_QUICK</title>
<path fill="none" stroke="black" d="M150.25,-1293.5C150.25,-1293.5 86.25,-1293.5 86.25,-1293.5 80.25,-1293.5 74.25,-1287.5 74.25,-1281.5 74.25,-1281.5 74.25,-1269.5 74.25,-1269.5 74.25,-1263.5 80.25,-1257.5 86.25,-1257.5 86.25,-1257.5 150.25,-1257.5 150.25,-1257.5 156.25,-1257.5 162.25,-1263.5 162.25,-1269.5 162.25,-1269.5 162.25,-1281.5 162.25,-1281.5 162.25,-1287.5 156.25,-1293.5 150.25,-1293.5"/>
<text xml:space="preserve" text-anchor="middle" x="118.25" y="-1270.45" font-family="Times New Roman,serif" font-size="14.00">TUI_QUICK</text>
</g>
<!-- TUI_BUTTON -->
<g id="node19" class="node">
<title>TUI_BUTTON</title>
<path fill="none" stroke="black" d="M475.62,-2040.5C475.62,-2040.5 399.62,-2040.5 399.62,-2040.5 393.62,-2040.5 387.62,-2034.5 387.62,-2028.5 387.62,-2028.5 387.62,-2016.5 387.62,-2016.5 387.62,-2010.5 393.62,-2004.5 399.62,-2004.5 399.62,-2004.5 475.62,-2004.5 475.62,-2004.5 481.62,-2004.5 487.62,-2010.5 487.62,-2016.5 487.62,-2016.5 487.62,-2028.5 487.62,-2028.5 487.62,-2034.5 481.62,-2040.5 475.62,-2040.5"/>
<text xml:space="preserve" text-anchor="middle" x="437.62" y="-2017.45" font-family="Times New Roman,serif" font-size="14.00">TUI_BUTTON</text>
</g>
<!-- TUI_BUTTON&#45;&gt;TUI_WIDGET -->
<g id="edge5" class="edge">
<title>TUI_BUTTON&#45;&gt;TUI_WIDGET</title>
<path fill="none" stroke="black" d="M488.01,-2016.5C570.43,-2016.5 725,-2016.5 725,-2016.5 725,-2016.5 725,-1512.4 725,-1512.4"/>
<polygon fill="none" stroke="black" points="728.5,-1512.4 725,-1502.4 721.5,-1512.4 728.5,-1512.4"/>
</g>
<!-- TUI_BUTTON&#45;&gt;TUI_WIDGET -->
<g id="edge25" class="edge">
<title>TUI_BUTTON&#45;&gt;TUI_WIDGET</title>
<path fill="none" stroke="black" d="M488.06,-2028.5C571.94,-2028.5 731,-2028.5 731,-2028.5 731,-2028.5 731,-1512.49 731,-1512.49"/>
<polygon fill="none" stroke="black" points="734.5,-1512.49 731,-1502.49 727.5,-1512.49 734.5,-1512.49"/>
</g>
<!-- TUI_CHECKBOX -->
<g id="node20" class="node">
<title>TUI_CHECKBOX</title>
<path fill="none" stroke="black" d="M485.38,-1968.5C485.38,-1968.5 389.88,-1968.5 389.88,-1968.5 383.88,-1968.5 377.88,-1962.5 377.88,-1956.5 377.88,-1956.5 377.88,-1944.5 377.88,-1944.5 377.88,-1938.5 383.88,-1932.5 389.88,-1932.5 389.88,-1932.5 485.38,-1932.5 485.38,-1932.5 491.38,-1932.5 497.38,-1938.5 497.38,-1944.5 497.38,-1944.5 497.38,-1956.5 497.38,-1956.5 497.38,-1962.5 491.38,-1968.5 485.38,-1968.5"/>
<text xml:space="preserve" text-anchor="middle" x="437.62" y="-1945.45" font-family="Times New Roman,serif" font-size="14.00">TUI_CHECKBOX</text>
</g>
<!-- TUI_CHECKBOX&#45;&gt;TUI_WIDGET -->
<g id="edge6" class="edge">
<title>TUI_CHECKBOX&#45;&gt;TUI_WIDGET</title>
<path fill="none" stroke="black" d="M497.84,-1944.5C578.6,-1944.5 712,-1944.5 712,-1944.5 712,-1944.5 712,-1512.41 712,-1512.41"/>
<polygon fill="none" stroke="black" points="715.5,-1512.41 712,-1502.41 708.5,-1512.41 715.5,-1512.41"/>
</g>
<!-- TUI_CHECKBOX&#45;&gt;TUI_WIDGET -->
<g id="edge26" class="edge">
<title>TUI_CHECKBOX&#45;&gt;TUI_WIDGET</title>
<path fill="none" stroke="black" d="M497.77,-1956.5C580.16,-1956.5 718,-1956.5 718,-1956.5 718,-1956.5 718,-1512.3 718,-1512.3"/>
<polygon fill="none" stroke="black" points="721.5,-1512.3 718,-1502.3 714.5,-1512.3 721.5,-1512.3"/>
</g>
<!-- TUI_COMBO_BOX -->
<g id="node21" class="node">
<title>TUI_COMBO_BOX</title>
<path fill="none" stroke="black" d="M491,-1896.5C491,-1896.5 384.25,-1896.5 384.25,-1896.5 378.25,-1896.5 372.25,-1890.5 372.25,-1884.5 372.25,-1884.5 372.25,-1872.5 372.25,-1872.5 372.25,-1866.5 378.25,-1860.5 384.25,-1860.5 384.25,-1860.5 491,-1860.5 491,-1860.5 497,-1860.5 503,-1866.5 503,-1872.5 503,-1872.5 503,-1884.5 503,-1884.5 503,-1890.5 497,-1896.5 491,-1896.5"/>
<text xml:space="preserve" text-anchor="middle" x="437.62" y="-1873.45" font-family="Times New Roman,serif" font-size="14.00">TUI_COMBO_BOX</text>
</g>
<!-- TUI_COMBO_BOX&#45;&gt;TUI_WIDGET -->
<g id="edge7" class="edge">
<title>TUI_COMBO_BOX&#45;&gt;TUI_WIDGET</title>
<path fill="none" stroke="black" d="M503.33,-1872.5C580.46,-1872.5 698,-1872.5 698,-1872.5 698,-1872.5 698,-1512.3 698,-1512.3"/>
<polygon fill="none" stroke="black" points="701.5,-1512.3 698,-1502.3 694.5,-1512.3 701.5,-1512.3"/>
</g>
<!-- TUI_COMBO_BOX&#45;&gt;TUI_WIDGET -->
<g id="edge27" class="edge">
<title>TUI_COMBO_BOX&#45;&gt;TUI_WIDGET</title>
<path fill="none" stroke="black" d="M503.37,-1884.5C582.54,-1884.5 705,-1884.5 705,-1884.5 705,-1884.5 705,-1512.33 705,-1512.33"/>
<polygon fill="none" stroke="black" points="708.5,-1512.33 705,-1502.33 701.5,-1512.33 708.5,-1512.33"/>
</g>
<!-- TUI_INPUT_DIALOG -->
<g id="node22" class="node">
<title>TUI_INPUT_DIALOG</title>
<path fill="none" stroke="black" d="M497.38,-1824.5C497.38,-1824.5 377.88,-1824.5 377.88,-1824.5 371.88,-1824.5 365.88,-1818.5 365.88,-1812.5 365.88,-1812.5 365.88,-1800.5 365.88,-1800.5 365.88,-1794.5 371.88,-1788.5 377.88,-1788.5 377.88,-1788.5 497.38,-1788.5 497.38,-1788.5 503.38,-1788.5 509.38,-1794.5 509.38,-1800.5 509.38,-1800.5 509.38,-1812.5 509.38,-1812.5 509.38,-1818.5 503.38,-1824.5 497.38,-1824.5"/>
<text xml:space="preserve" text-anchor="middle" x="437.62" y="-1801.45" font-family="Times New Roman,serif" font-size="14.00">TUI_INPUT_DIALOG</text>
</g>
<!-- TUI_INPUT_DIALOG&#45;&gt;TUI_WIDGET -->
<g id="edge8" class="edge">
<title>TUI_INPUT_DIALOG&#45;&gt;TUI_WIDGET</title>
<path fill="none" stroke="black" d="M505,-1788.36C505,-1720.58 505,-1486.1 505,-1486.1 505,-1486.1 626.75,-1486.1 626.75,-1486.1"/>
<polygon fill="none" stroke="black" points="626.75,-1489.6 636.75,-1486.1 626.75,-1482.6 626.75,-1489.6"/>
</g>
<!-- TUI_INPUT_DIALOG&#45;&gt;TUI_WIDGET -->
<g id="edge28" class="edge">
<title>TUI_INPUT_DIALOG&#45;&gt;TUI_WIDGET</title>
<path fill="none" stroke="black" d="M507,-1788.31C507,-1721.46 507,-1493.3 507,-1493.3 507,-1493.3 626.82,-1493.3 626.82,-1493.3"/>
<polygon fill="none" stroke="black" points="626.82,-1496.8 636.82,-1493.3 626.82,-1489.8 626.82,-1496.8"/>
</g>
<!-- TUI_LABEL -->
<g id="node23" class="node">
<title>TUI_LABEL</title>
<path fill="none" stroke="black" d="M470,-1752.5C470,-1752.5 405.25,-1752.5 405.25,-1752.5 399.25,-1752.5 393.25,-1746.5 393.25,-1740.5 393.25,-1740.5 393.25,-1728.5 393.25,-1728.5 393.25,-1722.5 399.25,-1716.5 405.25,-1716.5 405.25,-1716.5 470,-1716.5 470,-1716.5 476,-1716.5 482,-1722.5 482,-1728.5 482,-1728.5 482,-1740.5 482,-1740.5 482,-1746.5 476,-1752.5 470,-1752.5"/>
<text xml:space="preserve" text-anchor="middle" x="437.62" y="-1729.45" font-family="Times New Roman,serif" font-size="14.00">TUI_LABEL</text>
</g>
<!-- TUI_LABEL&#45;&gt;TUI_WIDGET -->
<g id="edge9" class="edge">
<title>TUI_LABEL&#45;&gt;TUI_WIDGET</title>
<path fill="none" stroke="black" d="M482.42,-1728.5C553.71,-1728.5 685,-1728.5 685,-1728.5 685,-1728.5 685,-1512.5 685,-1512.5"/>
<polygon fill="none" stroke="black" points="688.5,-1512.5 685,-1502.5 681.5,-1512.5 688.5,-1512.5"/>
</g>
<!-- TUI_LABEL&#45;&gt;TUI_WIDGET -->
<g id="edge29" class="edge">
<title>TUI_LABEL&#45;&gt;TUI_WIDGET</title>
<path fill="none" stroke="black" d="M482.22,-1740.5C555.18,-1740.5 692,-1740.5 692,-1740.5 692,-1740.5 692,-1512.16 692,-1512.16"/>
<polygon fill="none" stroke="black" points="695.5,-1512.16 692,-1502.16 688.5,-1512.16 695.5,-1512.16"/>
</g>
<!-- TUI_LIST -->
<g id="node24" class="node">
<title>TUI_LIST</title>
<path fill="none" stroke="black" d="M462.5,-1680.5C462.5,-1680.5 412.75,-1680.5 412.75,-1680.5 406.75,-1680.5 400.75,-1674.5 400.75,-1668.5 400.75,-1668.5 400.75,-1656.5 400.75,-1656.5 400.75,-1650.5 406.75,-1644.5 412.75,-1644.5 412.75,-1644.5 462.5,-1644.5 462.5,-1644.5 468.5,-1644.5 474.5,-1650.5 474.5,-1656.5 474.5,-1656.5 474.5,-1668.5 474.5,-1668.5 474.5,-1674.5 468.5,-1680.5 462.5,-1680.5"/>
<text xml:space="preserve" text-anchor="middle" x="437.62" y="-1657.45" font-family="Times New Roman,serif" font-size="14.00">TUI_LIST</text>
</g>
<!-- TUI_LIST&#45;&gt;TUI_WIDGET -->
<g id="edge10" class="edge">
<title>TUI_LIST&#45;&gt;TUI_WIDGET</title>
<path fill="none" stroke="black" d="M474.76,-1656.5C540.85,-1656.5 672,-1656.5 672,-1656.5 672,-1656.5 672,-1512.31 672,-1512.31"/>
<polygon fill="none" stroke="black" points="675.5,-1512.31 672,-1502.31 668.5,-1512.31 675.5,-1512.31"/>
</g>
<!-- TUI_LIST&#45;&gt;TUI_WIDGET -->
<g id="edge30" class="edge">
<title>TUI_LIST&#45;&gt;TUI_WIDGET</title>
<path fill="none" stroke="black" d="M474.92,-1668.5C542.44,-1668.5 678,-1668.5 678,-1668.5 678,-1668.5 678,-1512.19 678,-1512.19"/>
<polygon fill="none" stroke="black" points="681.5,-1512.19 678,-1502.19 674.5,-1512.19 681.5,-1512.19"/>
</g>
<!-- TUI_MENU -->
<g id="node25" class="node">
<title>TUI_MENU</title>
<path fill="none" stroke="black" d="M468.5,-1608.5C468.5,-1608.5 406.75,-1608.5 406.75,-1608.5 400.75,-1608.5 394.75,-1602.5 394.75,-1596.5 394.75,-1596.5 394.75,-1584.5 394.75,-1584.5 394.75,-1578.5 400.75,-1572.5 406.75,-1572.5 406.75,-1572.5 468.5,-1572.5 468.5,-1572.5 474.5,-1572.5 480.5,-1578.5 480.5,-1584.5 480.5,-1584.5 480.5,-1596.5 480.5,-1596.5 480.5,-1602.5 474.5,-1608.5 468.5,-1608.5"/>
<text xml:space="preserve" text-anchor="middle" x="437.62" y="-1585.45" font-family="Times New Roman,serif" font-size="14.00">TUI_MENU</text>
</g>
<!-- TUI_MENU&#45;&gt;TUI_WIDGET -->
<g id="edge11" class="edge">
<title>TUI_MENU&#45;&gt;TUI_WIDGET</title>
<path fill="none" stroke="black" d="M480.93,-1596.5C546.9,-1596.5 665,-1596.5 665,-1596.5 665,-1596.5 665,-1512.33 665,-1512.33"/>
<polygon fill="none" stroke="black" points="668.5,-1512.33 665,-1502.33 661.5,-1512.33 668.5,-1512.33"/>
</g>
<!-- TUI_MENU&#45;&gt;TUI_WIDGET -->
<g id="edge31" class="edge">
<title>TUI_MENU&#45;&gt;TUI_WIDGET</title>
<path fill="none" stroke="black" d="M480.83,-1584.5C545.26,-1584.5 659,-1584.5 659,-1584.5 659,-1584.5 659,-1512.25 659,-1512.25"/>
<polygon fill="none" stroke="black" points="662.5,-1512.25 659,-1502.25 655.5,-1512.25 662.5,-1512.25"/>
</g>
<!-- TUI_MENU_BAR -->
<g id="node26" class="node">
<title>TUI_MENU_BAR</title>
<path fill="none" stroke="black" d="M485.75,-1536.5C485.75,-1536.5 389.5,-1536.5 389.5,-1536.5 383.5,-1536.5 377.5,-1530.5 377.5,-1524.5 377.5,-1524.5 377.5,-1512.5 377.5,-1512.5 377.5,-1506.5 383.5,-1500.5 389.5,-1500.5 389.5,-1500.5 485.75,-1500.5 485.75,-1500.5 491.75,-1500.5 497.75,-1506.5 497.75,-1512.5 497.75,-1512.5 497.75,-1524.5 497.75,-1524.5 497.75,-1530.5 491.75,-1536.5 485.75,-1536.5"/>
<text xml:space="preserve" text-anchor="middle" x="437.62" y="-1513.45" font-family="Times New Roman,serif" font-size="14.00">TUI_MENU_BAR</text>
</g>
<!-- TUI_MENU_BAR&#45;&gt;TUI_WIDGET -->
<g id="edge12" class="edge">
<title>TUI_MENU_BAR&#45;&gt;TUI_WIDGET</title>
<path fill="none" stroke="black" d="M498.16,-1512.5C559.37,-1512.5 645,-1512.5 645,-1512.5 645,-1512.5 645,-1511.35 645,-1511.35"/>
<polygon fill="none" stroke="black" points="648.5,-1512.5 645,-1502.5 641.5,-1512.5 648.5,-1512.5"/>
</g>
<!-- TUI_MENU_BAR&#45;&gt;TUI_WIDGET -->
<g id="edge32" class="edge">
<title>TUI_MENU_BAR&#45;&gt;TUI_WIDGET</title>
<path fill="none" stroke="black" d="M498.2,-1524.5C561.59,-1524.5 652,-1524.5 652,-1524.5 652,-1524.5 652,-1512.07 652,-1512.07"/>
<polygon fill="none" stroke="black" points="655.5,-1512.07 652,-1502.07 648.5,-1512.07 655.5,-1512.07"/>
</g>
<!-- TUI_MENU_ITEM -->
<g id="node27" class="node">
<title>TUI_MENU_ITEM</title>
<path fill="none" stroke="black" d="M169.38,-1815.5C169.38,-1815.5 67.12,-1815.5 67.12,-1815.5 61.12,-1815.5 55.12,-1809.5 55.12,-1803.5 55.12,-1803.5 55.12,-1791.5 55.12,-1791.5 55.12,-1785.5 61.12,-1779.5 67.12,-1779.5 67.12,-1779.5 169.38,-1779.5 169.38,-1779.5 175.38,-1779.5 181.38,-1785.5 181.38,-1791.5 181.38,-1791.5 181.38,-1803.5 181.38,-1803.5 181.38,-1809.5 175.38,-1815.5 169.38,-1815.5"/>
<text xml:space="preserve" text-anchor="middle" x="118.25" y="-1792.45" font-family="Times New Roman,serif" font-size="14.00">TUI_MENU_ITEM</text>
</g>
<!-- TUI_MESSAGE_BOX -->
<g id="node28" class="node">
<title>TUI_MESSAGE_BOX</title>
<path fill="none" stroke="black" d="M497.75,-1464.5C497.75,-1464.5 377.5,-1464.5 377.5,-1464.5 371.5,-1464.5 365.5,-1458.5 365.5,-1452.5 365.5,-1452.5 365.5,-1440.5 365.5,-1440.5 365.5,-1434.5 371.5,-1428.5 377.5,-1428.5 377.5,-1428.5 497.75,-1428.5 497.75,-1428.5 503.75,-1428.5 509.75,-1434.5 509.75,-1440.5 509.75,-1440.5 509.75,-1452.5 509.75,-1452.5 509.75,-1458.5 503.75,-1464.5 497.75,-1464.5"/>
<text xml:space="preserve" text-anchor="middle" x="437.62" y="-1441.45" font-family="Times New Roman,serif" font-size="14.00">TUI_MESSAGE_BOX</text>
</g>
<!-- TUI_MESSAGE_BOX&#45;&gt;TUI_WIDGET -->
<g id="edge13" class="edge">
<title>TUI_MESSAGE_BOX&#45;&gt;TUI_WIDGET</title>
<path fill="none" stroke="black" d="M500,-1464.81C500,-1468.72 500,-1471.7 500,-1471.7 500,-1471.7 626.87,-1471.7 626.87,-1471.7"/>
<polygon fill="none" stroke="black" points="626.88,-1475.2 636.87,-1471.7 626.87,-1468.2 626.88,-1475.2"/>
</g>
<!-- TUI_MESSAGE_BOX&#45;&gt;TUI_WIDGET -->
<g id="edge33" class="edge">
<title>TUI_MESSAGE_BOX&#45;&gt;TUI_WIDGET</title>
<path fill="none" stroke="black" d="M502,-1464.97C502,-1472.25 502,-1478.9 502,-1478.9 502,-1478.9 626.92,-1478.9 626.92,-1478.9"/>
<polygon fill="none" stroke="black" points="626.92,-1482.4 636.92,-1478.9 626.92,-1475.4 626.92,-1482.4"/>
</g>
<!-- TUI_PROGRESS -->
<g id="node29" class="node">
<title>TUI_PROGRESS</title>
<path fill="none" stroke="black" d="M482.38,-1392.5C482.38,-1392.5 392.88,-1392.5 392.88,-1392.5 386.88,-1392.5 380.88,-1386.5 380.88,-1380.5 380.88,-1380.5 380.88,-1368.5 380.88,-1368.5 380.88,-1362.5 386.88,-1356.5 392.88,-1356.5 392.88,-1356.5 482.38,-1356.5 482.38,-1356.5 488.38,-1356.5 494.38,-1362.5 494.38,-1368.5 494.38,-1368.5 494.38,-1380.5 494.38,-1380.5 494.38,-1386.5 488.38,-1392.5 482.38,-1392.5"/>
<text xml:space="preserve" text-anchor="middle" x="437.62" y="-1369.45" font-family="Times New Roman,serif" font-size="14.00">TUI_PROGRESS</text>
</g>
<!-- TUI_PROGRESS&#45;&gt;TUI_WIDGET -->
<g id="edge14" class="edge">
<title>TUI_PROGRESS&#45;&gt;TUI_WIDGET</title>
<path fill="none" stroke="black" d="M494.79,-1368.5C558.3,-1368.5 652,-1368.5 652,-1368.5 652,-1368.5 652,-1452.67 652,-1452.67"/>
<polygon fill="none" stroke="black" points="648.5,-1452.67 652,-1462.67 655.5,-1452.67 648.5,-1452.67"/>
</g>
<!-- TUI_PROGRESS&#45;&gt;TUI_WIDGET -->
<g id="edge34" class="edge">
<title>TUI_PROGRESS&#45;&gt;TUI_WIDGET</title>
<path fill="none" stroke="black" d="M494.84,-1380.5C556.22,-1380.5 645,-1380.5 645,-1380.5 645,-1380.5 645,-1452.75 645,-1452.75"/>
<polygon fill="none" stroke="black" points="641.5,-1452.75 645,-1462.75 648.5,-1452.75 641.5,-1452.75"/>
</g>
<!-- TUI_RADIO_BUTTON -->
<g id="node30" class="node">
<title>TUI_RADIO_BUTTON</title>
<path fill="none" stroke="black" d="M500.38,-1320.5C500.38,-1320.5 374.88,-1320.5 374.88,-1320.5 368.88,-1320.5 362.88,-1314.5 362.88,-1308.5 362.88,-1308.5 362.88,-1296.5 362.88,-1296.5 362.88,-1290.5 368.88,-1284.5 374.88,-1284.5 374.88,-1284.5 500.38,-1284.5 500.38,-1284.5 506.38,-1284.5 512.38,-1290.5 512.38,-1296.5 512.38,-1296.5 512.38,-1308.5 512.38,-1308.5 512.38,-1314.5 506.38,-1320.5 500.38,-1320.5"/>
<text xml:space="preserve" text-anchor="middle" x="437.62" y="-1297.45" font-family="Times New Roman,serif" font-size="14.00">TUI_RADIO_BUTTON</text>
</g>
<!-- TUI_RADIO_BUTTON&#45;&gt;TUI_WIDGET -->
<g id="edge15" class="edge">
<title>TUI_RADIO_BUTTON&#45;&gt;TUI_WIDGET</title>
<path fill="none" stroke="black" d="M512.71,-1296.5C578.94,-1296.5 665,-1296.5 665,-1296.5 665,-1296.5 665,-1452.81 665,-1452.81"/>
<polygon fill="none" stroke="black" points="661.5,-1452.81 665,-1462.81 668.5,-1452.81 661.5,-1452.81"/>
</g>
<!-- TUI_RADIO_BUTTON&#45;&gt;TUI_WIDGET -->
<g id="edge35" class="edge">
<title>TUI_RADIO_BUTTON&#45;&gt;TUI_WIDGET</title>
<path fill="none" stroke="black" d="M512.57,-1308.5C576.8,-1308.5 659,-1308.5 659,-1308.5 659,-1308.5 659,-1452.69 659,-1452.69"/>
<polygon fill="none" stroke="black" points="655.5,-1452.69 659,-1462.69 662.5,-1452.69 655.5,-1452.69"/>
</g>
<!-- TUI_RADIO_GROUP -->
<g id="node31" class="node">
<title>TUI_RADIO_GROUP</title>
<path fill="none" stroke="black" d="M495.88,-1248.5C495.88,-1248.5 379.38,-1248.5 379.38,-1248.5 373.38,-1248.5 367.38,-1242.5 367.38,-1236.5 367.38,-1236.5 367.38,-1224.5 367.38,-1224.5 367.38,-1218.5 373.38,-1212.5 379.38,-1212.5 379.38,-1212.5 495.88,-1212.5 495.88,-1212.5 501.88,-1212.5 507.88,-1218.5 507.88,-1224.5 507.88,-1224.5 507.88,-1236.5 507.88,-1236.5 507.88,-1242.5 501.88,-1248.5 495.88,-1248.5"/>
<text xml:space="preserve" text-anchor="middle" x="437.62" y="-1225.45" font-family="Times New Roman,serif" font-size="14.00">TUI_RADIO_GROUP</text>
</g>
<!-- TUI_RADIO_GROUP&#45;&gt;TUI_WIDGET -->
<g id="edge16" class="edge">
<title>TUI_RADIO_GROUP&#45;&gt;TUI_WIDGET</title>
<path fill="none" stroke="black" d="M508.12,-1224.5C579.05,-1224.5 678,-1224.5 678,-1224.5 678,-1224.5 678,-1452.84 678,-1452.84"/>
<polygon fill="none" stroke="black" points="674.5,-1452.84 678,-1462.84 681.5,-1452.84 674.5,-1452.84"/>
</g>
<!-- TUI_RADIO_GROUP&#45;&gt;TUI_WIDGET -->
<g id="edge36" class="edge">
<title>TUI_RADIO_GROUP&#45;&gt;TUI_WIDGET</title>
<path fill="none" stroke="black" d="M508.26,-1236.5C577.27,-1236.5 672,-1236.5 672,-1236.5 672,-1236.5 672,-1452.5 672,-1452.5"/>
<polygon fill="none" stroke="black" points="668.5,-1452.5 672,-1462.5 675.5,-1452.5 668.5,-1452.5"/>
</g>
<!-- TUI_SEPARATOR -->
<g id="node32" class="node">
<title>TUI_SEPARATOR</title>
<path fill="none" stroke="black" d="M486.5,-1176.5C486.5,-1176.5 388.75,-1176.5 388.75,-1176.5 382.75,-1176.5 376.75,-1170.5 376.75,-1164.5 376.75,-1164.5 376.75,-1152.5 376.75,-1152.5 376.75,-1146.5 382.75,-1140.5 388.75,-1140.5 388.75,-1140.5 486.5,-1140.5 486.5,-1140.5 492.5,-1140.5 498.5,-1146.5 498.5,-1152.5 498.5,-1152.5 498.5,-1164.5 498.5,-1164.5 498.5,-1170.5 492.5,-1176.5 486.5,-1176.5"/>
<text xml:space="preserve" text-anchor="middle" x="437.62" y="-1153.45" font-family="Times New Roman,serif" font-size="14.00">TUI_SEPARATOR</text>
</g>
<!-- TUI_SEPARATOR&#45;&gt;TUI_WIDGET -->
<g id="edge17" class="edge">
<title>TUI_SEPARATOR&#45;&gt;TUI_WIDGET</title>
<path fill="none" stroke="black" d="M498.77,-1164.5C572.03,-1164.5 685,-1164.5 685,-1164.5 685,-1164.5 685,-1452.51 685,-1452.51"/>
<polygon fill="none" stroke="black" points="681.5,-1452.51 685,-1462.51 688.5,-1452.51 681.5,-1452.51"/>
</g>
<!-- TUI_SEPARATOR&#45;&gt;TUI_WIDGET -->
<g id="edge37" class="edge">
<title>TUI_SEPARATOR&#45;&gt;TUI_WIDGET</title>
<path fill="none" stroke="black" d="M498.88,-1152.5C574.15,-1152.5 692,-1152.5 692,-1152.5 692,-1152.5 692,-1452.77 692,-1452.77"/>
<polygon fill="none" stroke="black" points="688.5,-1452.77 692,-1462.77 695.5,-1452.77 688.5,-1452.77"/>
</g>
<!-- TUI_TABS -->
<g id="node33" class="node">
<title>TUI_TABS</title>
<path fill="none" stroke="black" d="M465.12,-1104.5C465.12,-1104.5 410.12,-1104.5 410.12,-1104.5 404.12,-1104.5 398.12,-1098.5 398.12,-1092.5 398.12,-1092.5 398.12,-1080.5 398.12,-1080.5 398.12,-1074.5 404.12,-1068.5 410.12,-1068.5 410.12,-1068.5 465.12,-1068.5 465.12,-1068.5 471.12,-1068.5 477.12,-1074.5 477.12,-1080.5 477.12,-1080.5 477.12,-1092.5 477.12,-1092.5 477.12,-1098.5 471.12,-1104.5 465.12,-1104.5"/>
<text xml:space="preserve" text-anchor="middle" x="437.62" y="-1081.45" font-family="Times New Roman,serif" font-size="14.00">TUI_TABS</text>
</g>
<!-- TUI_TABS&#45;&gt;TUI_WIDGET -->
<g id="edge18" class="edge">
<title>TUI_TABS&#45;&gt;TUI_WIDGET</title>
<path fill="none" stroke="black" d="M477.45,-1092.5C550.39,-1092.5 698,-1092.5 698,-1092.5 698,-1092.5 698,-1452.7 698,-1452.7"/>
<polygon fill="none" stroke="black" points="694.5,-1452.7 698,-1462.7 701.5,-1452.7 694.5,-1452.7"/>
</g>
<!-- TUI_TABS&#45;&gt;TUI_WIDGET -->
<g id="edge38" class="edge">
<title>TUI_TABS&#45;&gt;TUI_WIDGET</title>
<path fill="none" stroke="black" d="M477.37,-1080.5C551.85,-1080.5 705,-1080.5 705,-1080.5 705,-1080.5 705,-1452.67 705,-1452.67"/>
<polygon fill="none" stroke="black" points="701.5,-1452.67 705,-1462.67 708.5,-1452.67 701.5,-1452.67"/>
</g>
<!-- TUI_TEXT_FIELD -->
<g id="node34" class="node">
<title>TUI_TEXT_FIELD</title>
<path fill="none" stroke="black" d="M488,-1032.5C488,-1032.5 387.25,-1032.5 387.25,-1032.5 381.25,-1032.5 375.25,-1026.5 375.25,-1020.5 375.25,-1020.5 375.25,-1008.5 375.25,-1008.5 375.25,-1002.5 381.25,-996.5 387.25,-996.5 387.25,-996.5 488,-996.5 488,-996.5 494,-996.5 500,-1002.5 500,-1008.5 500,-1008.5 500,-1020.5 500,-1020.5 500,-1026.5 494,-1032.5 488,-1032.5"/>
<text xml:space="preserve" text-anchor="middle" x="437.62" y="-1009.45" font-family="Times New Roman,serif" font-size="14.00">TUI_TEXT_FIELD</text>
</g>
<!-- TUI_TEXT_FIELD&#45;&gt;TUI_WIDGET -->
<g id="edge19" class="edge">
<title>TUI_TEXT_FIELD&#45;&gt;TUI_WIDGET</title>
<path fill="none" stroke="black" d="M500.2,-1008.5C582.83,-1008.5 718,-1008.5 718,-1008.5 718,-1008.5 718,-1452.7 718,-1452.7"/>
<polygon fill="none" stroke="black" points="714.5,-1452.7 718,-1462.7 721.5,-1452.7 714.5,-1452.7"/>
</g>
<!-- TUI_TEXT_FIELD&#45;&gt;TUI_WIDGET -->
<g id="edge39" class="edge">
<title>TUI_TEXT_FIELD&#45;&gt;TUI_WIDGET</title>
<path fill="none" stroke="black" d="M500.23,-1020.5C581.21,-1020.5 712,-1020.5 712,-1020.5 712,-1020.5 712,-1452.59 712,-1452.59"/>
<polygon fill="none" stroke="black" points="708.5,-1452.59 712,-1462.59 715.5,-1452.59 708.5,-1452.59"/>
</g>
<!-- LIB_TESTS -->
<g id="node35" class="node">
<title>LIB_TESTS</title>
<path fill="none" stroke="black" d="M148.38,-2112.5C148.38,-2112.5 88.12,-2112.5 88.12,-2112.5 82.12,-2112.5 76.12,-2106.5 76.12,-2100.5 76.12,-2100.5 76.12,-2088.5 76.12,-2088.5 76.12,-2082.5 82.12,-2076.5 88.12,-2076.5 88.12,-2076.5 148.38,-2076.5 148.38,-2076.5 154.38,-2076.5 160.38,-2082.5 160.38,-2088.5 160.38,-2088.5 160.38,-2100.5 160.38,-2100.5 160.38,-2106.5 154.38,-2112.5 148.38,-2112.5"/>
<text xml:space="preserve" text-anchor="middle" x="118.25" y="-2089.45" font-family="Times New Roman,serif" font-size="14.00">LIB_TESTS</text>
</g>
<!-- TEST_SET_BASE -->
<g id="node36" class="node">
<title>TEST_SET_BASE</title>
<path fill="none" stroke="black" d="M485.75,-2112.5C485.75,-2112.5 389.5,-2112.5 389.5,-2112.5 383.5,-2112.5 377.5,-2106.5 377.5,-2100.5 377.5,-2100.5 377.5,-2088.5 377.5,-2088.5 377.5,-2082.5 383.5,-2076.5 389.5,-2076.5 389.5,-2076.5 485.75,-2076.5 485.75,-2076.5 491.75,-2076.5 497.75,-2082.5 497.75,-2088.5 497.75,-2088.5 497.75,-2100.5 497.75,-2100.5 497.75,-2106.5 491.75,-2112.5 485.75,-2112.5"/>
<text xml:space="preserve" text-anchor="middle" x="437.62" y="-2089.45" font-family="Times New Roman,serif" font-size="14.00">TEST_SET_BASE</text>
</g>
<!-- LIB_TESTS&#45;&gt;TEST_SET_BASE -->
<g id="edge20" class="edge">
<title>LIB_TESTS&#45;&gt;TEST_SET_BASE</title>
<path fill="none" stroke="black" d="M160.66,-2094.5C160.66,-2094.5 365.5,-2094.5 365.5,-2094.5"/>
<polygon fill="none" stroke="black" points="365.5,-2098 375.5,-2094.5 365.5,-2091 365.5,-2098"/>
</g>
<!-- TEST_APP -->
<g id="node37" class="node">
<title>TEST_APP</title>
<path fill="none" stroke="black" d="M146.12,-2184.5C146.12,-2184.5 90.38,-2184.5 90.38,-2184.5 84.38,-2184.5 78.38,-2178.5 78.38,-2172.5 78.38,-2172.5 78.38,-2160.5 78.38,-2160.5 78.38,-2154.5 84.38,-2148.5 90.38,-2148.5 90.38,-2148.5 146.12,-2148.5 146.12,-2148.5 152.12,-2148.5 158.12,-2154.5 158.12,-2160.5 158.12,-2160.5 158.12,-2172.5 158.12,-2172.5 158.12,-2178.5 152.12,-2184.5 146.12,-2184.5"/>
<text xml:space="preserve" text-anchor="middle" x="118.25" y="-2161.45" font-family="Times New Roman,serif" font-size="14.00">TEST_APP</text>
</g>
<!-- TUI_DEMO -->
<g id="node38" class="node">
<title>TUI_DEMO</title>
<path fill="none" stroke="black" d="M149.12,-2256.5C149.12,-2256.5 87.38,-2256.5 87.38,-2256.5 81.38,-2256.5 75.38,-2250.5 75.38,-2244.5 75.38,-2244.5 75.38,-2232.5 75.38,-2232.5 75.38,-2226.5 81.38,-2220.5 87.38,-2220.5 87.38,-2220.5 149.12,-2220.5 149.12,-2220.5 155.12,-2220.5 161.12,-2226.5 161.12,-2232.5 161.12,-2232.5 161.12,-2244.5 161.12,-2244.5 161.12,-2250.5 155.12,-2256.5 149.12,-2256.5"/>
<text xml:space="preserve" text-anchor="middle" x="118.25" y="-2233.45" font-family="Times New Roman,serif" font-size="14.00">TUI_DEMO</text>
</g>
<!-- TASK_DEPENDENCY -->
<g id="node39" class="node">
<title>TASK_DEPENDENCY</title>
<path fill="none" stroke="black" d="M179.88,-2328.5C179.88,-2328.5 56.62,-2328.5 56.62,-2328.5 50.62,-2328.5 44.62,-2322.5 44.62,-2316.5 44.62,-2316.5 44.62,-2304.5 44.62,-2304.5 44.62,-2298.5 50.62,-2292.5 56.62,-2292.5 56.62,-2292.5 179.88,-2292.5 179.88,-2292.5 185.88,-2292.5 191.88,-2298.5 191.88,-2304.5 191.88,-2304.5 191.88,-2316.5 191.88,-2316.5 191.88,-2322.5 185.88,-2328.5 179.88,-2328.5"/>
<text xml:space="preserve" text-anchor="middle" x="118.25" y="-2305.45" font-family="Times New Roman,serif" font-size="14.00">TASK_DEPENDENCY</text>
</g>
<!-- TASK_DEPENDENCY_REPOSITORY -->
<g id="node40" class="node">
<title>TASK_DEPENDENCY_REPOSITORY</title>
<path fill="none" stroke="black" d="M224.5,-2400.5C224.5,-2400.5 12,-2400.5 12,-2400.5 6,-2400.5 0,-2394.5 0,-2388.5 0,-2388.5 0,-2376.5 0,-2376.5 0,-2370.5 6,-2364.5 12,-2364.5 12,-2364.5 224.5,-2364.5 224.5,-2364.5 230.5,-2364.5 236.5,-2370.5 236.5,-2376.5 236.5,-2376.5 236.5,-2388.5 236.5,-2388.5 236.5,-2394.5 230.5,-2400.5 224.5,-2400.5"/>
<text xml:space="preserve" text-anchor="middle" x="118.25" y="-2377.45" font-family="Times New Roman,serif" font-size="14.00">TASK_DEPENDENCY_REPOSITORY</text>
</g>
<!-- TASK_TAG_REPOSITORY -->
<g id="node41" class="node">
<title>TASK_TAG_REPOSITORY</title>
<path fill="none" stroke="black" d="M193,-2472.5C193,-2472.5 43.5,-2472.5 43.5,-2472.5 37.5,-2472.5 31.5,-2466.5 31.5,-2460.5 31.5,-2460.5 31.5,-2448.5 31.5,-2448.5 31.5,-2442.5 37.5,-2436.5 43.5,-2436.5 43.5,-2436.5 193,-2436.5 193,-2436.5 199,-2436.5 205,-2442.5 205,-2448.5 205,-2448.5 205,-2460.5 205,-2460.5 205,-2466.5 199,-2472.5 193,-2472.5"/>
<text xml:space="preserve" text-anchor="middle" x="118.25" y="-2449.45" font-family="Times New Roman,serif" font-size="14.00">TASK_TAG_REPOSITORY</text>
</g>
<!-- TODO_APP -->
<g id="node42" class="node">
<title>TODO_APP</title>
<path fill="none" stroke="black" d="M148.75,-2544.5C148.75,-2544.5 87.75,-2544.5 87.75,-2544.5 81.75,-2544.5 75.75,-2538.5 75.75,-2532.5 75.75,-2532.5 75.75,-2520.5 75.75,-2520.5 75.75,-2514.5 81.75,-2508.5 87.75,-2508.5 87.75,-2508.5 148.75,-2508.5 148.75,-2508.5 154.75,-2508.5 160.75,-2514.5 160.75,-2520.5 160.75,-2520.5 160.75,-2532.5 160.75,-2532.5 160.75,-2538.5 154.75,-2544.5 148.75,-2544.5"/>
<text xml:space="preserve" text-anchor="middle" x="118.25" y="-2521.45" font-family="Times New Roman,serif" font-size="14.00">TODO_APP</text>
</g>
<!-- TODO_ITEM -->
<g id="node43" class="node">
<title>TODO_ITEM</title>
<path fill="none" stroke="black" d="M153.25,-2616.5C153.25,-2616.5 83.25,-2616.5 83.25,-2616.5 77.25,-2616.5 71.25,-2610.5 71.25,-2604.5 71.25,-2604.5 71.25,-2592.5 71.25,-2592.5 71.25,-2586.5 77.25,-2580.5 83.25,-2580.5 83.25,-2580.5 153.25,-2580.5 153.25,-2580.5 159.25,-2580.5 165.25,-2586.5 165.25,-2592.5 165.25,-2592.5 165.25,-2604.5 165.25,-2604.5 165.25,-2610.5 159.25,-2616.5 153.25,-2616.5"/>
<text xml:space="preserve" text-anchor="middle" x="118.25" y="-2593.45" font-family="Times New Roman,serif" font-size="14.00">TODO_ITEM</text>
</g>
<!-- ANY -->
<g id="node44" class="node">
<title>ANY</title>
<path fill="none" stroke="black" d="M452.62,-2616.5C452.62,-2616.5 422.62,-2616.5 422.62,-2616.5 416.62,-2616.5 410.62,-2610.5 410.62,-2604.5 410.62,-2604.5 410.62,-2592.5 410.62,-2592.5 410.62,-2586.5 416.62,-2580.5 422.62,-2580.5 422.62,-2580.5 452.62,-2580.5 452.62,-2580.5 458.62,-2580.5 464.62,-2586.5 464.62,-2592.5 464.62,-2592.5 464.62,-2604.5 464.62,-2604.5 464.62,-2610.5 458.62,-2616.5 452.62,-2616.5"/>
<text xml:space="preserve" text-anchor="middle" x="437.62" y="-2593.45" font-family="Times New Roman,serif" font-size="14.00">ANY</text>
</g>
<!-- TODO_ITEM&#45;&gt;ANY -->
<g id="edge40" class="edge">
<title>TODO_ITEM&#45;&gt;ANY</title>
<path fill="none" stroke="black" d="M165.72,-2598.5C165.72,-2598.5 398.7,-2598.5 398.7,-2598.5"/>
<polygon fill="none" stroke="black" points="398.7,-2602 408.7,-2598.5 398.7,-2595 398.7,-2602"/>
</g>
<!-- TODO_REPOSITORY -->
<g id="node45" class="node">
<title>TODO_REPOSITORY</title>
<path fill="none" stroke="black" d="M177.62,-2688.5C177.62,-2688.5 58.88,-2688.5 58.88,-2688.5 52.88,-2688.5 46.88,-2682.5 46.88,-2676.5 46.88,-2676.5 46.88,-2664.5 46.88,-2664.5 46.88,-2658.5 52.88,-2652.5 58.88,-2652.5 58.88,-2652.5 177.62,-2652.5 177.62,-2652.5 183.62,-2652.5 189.62,-2658.5 189.62,-2664.5 189.62,-2664.5 189.62,-2676.5 189.62,-2676.5 189.62,-2682.5 183.62,-2688.5 177.62,-2688.5"/>
<text xml:space="preserve" text-anchor="middle" x="118.25" y="-2665.45" font-family="Times New Roman,serif" font-size="14.00">TODO_REPOSITORY</text>
</g>
<!-- SIMPLE_SQL_REPOSITORY -->
<g id="node46" class="node">
<title>SIMPLE_SQL_REPOSITORY</title>
<path fill="none" stroke="black" d="M518.75,-2688.5C518.75,-2688.5 356.5,-2688.5 356.5,-2688.5 350.5,-2688.5 344.5,-2682.5 344.5,-2676.5 344.5,-2676.5 344.5,-2664.5 344.5,-2664.5 344.5,-2658.5 350.5,-2652.5 356.5,-2652.5 356.5,-2652.5 518.75,-2652.5 518.75,-2652.5 524.75,-2652.5 530.75,-2658.5 530.75,-2664.5 530.75,-2664.5 530.75,-2676.5 530.75,-2676.5 530.75,-2682.5 524.75,-2688.5 518.75,-2688.5"/>
<text xml:space="preserve" text-anchor="middle" x="437.62" y="-2665.45" font-family="Times New Roman,serif" font-size="14.00">SIMPLE_SQL_REPOSITORY</text>
</g>
<!-- TODO_REPOSITORY&#45;&gt;SIMPLE_SQL_REPOSITORY -->
<g id="edge41" class="edge">
<title>TODO_REPOSITORY&#45;&gt;SIMPLE_SQL_REPOSITORY</title>
<path fill="none" stroke="black" d="M189.92,-2670.5C189.92,-2670.5 332.54,-2670.5 332.54,-2670.5"/>
<polygon fill="none" stroke="black" points="332.54,-2674 342.54,-2670.5 332.54,-2667 332.54,-2674"/>
</g>
</g>
</svg>
