<?xml version="1.0" encoding="UTF-8" standalone="no"?>
<!DOCTYPE svg PUBLIC "-//W3C//DTD SVG 1.1//EN"
 "http://www.w3.org/Graphics/SVG/1.1/DTD/svg11.dtd">
<!-- Generated by graphviz version 14.1.1 (20251213.1925)
 -->
<!-- Title: Dependencies Pages: 1 -->
<svg width="332pt" height="645pt"
 viewBox="0.00 0.00 332.00 645.00" xmlns="http://www.w3.org/2000/svg" xmlns:xlink="http://www.w3.org/1999/xlink">
<g id="graph0" class="graph" transform="scale(1 1) rotate(0) translate(4 640.5)">
<title>Dependencies</title>
<polygon fill="white" stroke="none" points="-4,4 -4,-640.5 327.75,-640.5 327.75,4 -4,4"/>
<text xml:space="preserve" text-anchor="middle" x="161.88" y="-7.2" font-family="Times New Roman,serif" font-size="14.00">simple_tui &#45; Dependencies</text>
<!-- simple_tui -->
<g id="node1" class="node">
<title>simple_tui</title>
<polygon fill="lightblue" stroke="black" points="73.75,-348.5 0,-348.5 0,-312.5 73.75,-312.5 73.75,-348.5"/>
<text xml:space="preserve" text-anchor="middle" x="36.88" y="-325.45" font-family="Times New Roman,serif" font-size="14.00">simple_tui</text>
</g>
<!-- simple_console -->
<g id="node2" class="node">
<title>simple_console</title>
<polygon fill="lightblue" stroke="black" points="321.12,-636.5 220.38,-636.5 220.38,-600.5 321.12,-600.5 321.12,-636.5"/>
<text xml:space="preserve" text-anchor="middle" x="270.75" y="-613.45" font-family="Times New Roman,serif" font-size="14.00">simple_console</text>
</g>
<!-- simple_tui&#45;&gt;simple_console -->
<g id="edge1" class="edge">
<title>simple_tui&#45;&gt;simple_console</title>
<path fill="none" stroke="black" stroke-dasharray="5,2" d="M10.75,-348.89C10.75,-413.25 10.75,-624.5 10.75,-624.5 10.75,-624.5 208.49,-624.5 208.49,-624.5"/>
<polygon fill="black" stroke="black" points="208.49,-628 218.49,-624.5 208.49,-621 208.49,-628"/>
</g>
<!-- simple_tui&#45;&gt;simple_console -->
<g id="edge4" class="edge">
<title>simple_tui&#45;&gt;simple_console</title>
<path fill="none" stroke="black" stroke-dasharray="5,2" d="M20.75,-348.57C20.75,-410.81 20.75,-612.5 20.75,-612.5 20.75,-612.5 208.65,-612.5 208.65,-612.5"/>
<polygon fill="black" stroke="black" points="208.65,-616 218.65,-612.5 208.65,-609 208.65,-616"/>
</g>
<!-- simple_logger -->
<g id="node3" class="node">
<title>simple_logger</title>
<polygon fill="lightblue" stroke="black" points="317.75,-564.5 223.75,-564.5 223.75,-528.5 317.75,-528.5 317.75,-564.5"/>
<text xml:space="preserve" text-anchor="middle" x="270.75" y="-541.45" font-family="Times New Roman,serif" font-size="14.00">simple_logger</text>
</g>
<!-- simple_tui&#45;&gt;simple_logger -->
<g id="edge2" class="edge">
<title>simple_tui&#45;&gt;simple_logger</title>
<path fill="none" stroke="black" stroke-dasharray="5,2" d="M31.75,-348.67C31.75,-401.69 31.75,-552.5 31.75,-552.5 31.75,-552.5 212.02,-552.5 212.02,-552.5"/>
<polygon fill="black" stroke="black" points="212.02,-556 222.02,-552.5 212.02,-549 212.02,-556"/>
</g>
<!-- simple_tui&#45;&gt;simple_logger -->
<g id="edge6" class="edge">
<title>simple_tui&#45;&gt;simple_logger</title>
<path fill="none" stroke="black" stroke-dasharray="5,2" d="M41.75,-348.77C41.75,-399.86 41.75,-540.5 41.75,-540.5 41.75,-540.5 211.79,-540.5 211.79,-540.5"/>
<polygon fill="black" stroke="black" points="211.79,-544 221.79,-540.5 211.79,-537 211.79,-544"/>
</g>
<!-- simple_testing -->
<g id="node4" class="node">
<title>simple_testing</title>
<polygon fill="lightblue" stroke="black" points="318.5,-492.5 223,-492.5 223,-456.5 318.5,-456.5 318.5,-492.5"/>
<text xml:space="preserve" text-anchor="middle" x="270.75" y="-469.45" font-family="Times New Roman,serif" font-size="14.00">simple_testing</text>
</g>
<!-- simple_tui&#45;&gt;simple_testing -->
<g id="edge3" class="edge">
<title>simple_tui&#45;&gt;simple_testing</title>
<path fill="none" stroke="black" stroke-dasharray="5,2" d="M52.75,-348.74C52.75,-387.49 52.75,-474.5 52.75,-474.5 52.75,-474.5 211.13,-474.5 211.13,-474.5"/>
<polygon fill="black" stroke="black" points="211.13,-478 221.13,-474.5 211.13,-471 211.13,-478"/>
</g>
<!-- simple_sql -->
<g id="node5" class="node">
<title>simple_sql</title>
<polygon fill="lightblue" stroke="black" points="308.38,-420.5 233.12,-420.5 233.12,-384.5 308.38,-384.5 308.38,-420.5"/>
<text xml:space="preserve" text-anchor="middle" x="270.75" y="-397.45" font-family="Times New Roman,serif" font-size="14.00">simple_sql</text>
</g>
<!-- simple_tui&#45;&gt;simple_sql -->
<g id="edge5" class="edge">
<title>simple_tui&#45;&gt;simple_sql</title>
<path fill="none" stroke="black" stroke-dasharray="5,2" d="M62.75,-348.67C62.75,-370 62.75,-402.5 62.75,-402.5 62.75,-402.5 221.57,-402.5 221.57,-402.5"/>
<polygon fill="black" stroke="black" points="221.57,-406 231.57,-402.5 221.57,-399 221.57,-406"/>
</g>
<!-- simple_ai_client -->
<g id="node6" class="node">
<title>simple_ai_client</title>
<polygon fill="lightblue" stroke="black" points="323.75,-348.5 217.75,-348.5 217.75,-312.5 323.75,-312.5 323.75,-348.5"/>
<text xml:space="preserve" text-anchor="middle" x="270.75" y="-325.45" font-family="Times New Roman,serif" font-size="14.00">simple_ai_client</text>
</g>
<!-- simple_tui&#45;&gt;simple_ai_client -->
<g id="edge7" class="edge">
<title>simple_tui&#45;&gt;simple_ai_client</title>
<path fill="none" stroke="black" stroke-dasharray="5,2" d="M74.19,-330.5C74.19,-330.5 205.94,-330.5 205.94,-330.5"/>
<polygon fill="black" stroke="black" points="205.94,-334 215.94,-330.5 205.94,-327 205.94,-334"/>
</g>
<!-- base -->
<g id="node7" class="node">
<title>base</title>
<polygon fill="lightgray" stroke="black" points="297.75,-276.5 243.75,-276.5 243.75,-240.5 297.75,-240.5 297.75,-276.5"/>
<text xml:space="preserve" text-anchor="middle" x="270.75" y="-253.45" font-family="Times New Roman,serif" font-size="14.00">base</text>
</g>
<!-- simple_tui&#45;&gt;base -->
<g id="edge8" class="edge">
<title>simple_tui&#45;&gt;base</title>
<path fill="none" stroke="black" stroke-dasharray="5,2" d="M62.75,-312.12C62.75,-292.59 62.75,-264.5 62.75,-264.5 62.75,-264.5 232.04,-264.5 232.04,-264.5"/>
<polygon fill="black" stroke="black" points="232.04,-268 242.04,-264.5 232.04,-261 232.04,-268"/>
</g>
<!-- simple_tui&#45;&gt;base -->
<g id="edge11" class="edge">
<title>simple_tui&#45;&gt;base</title>
<path fill="none" stroke="black" stroke-dasharray="5,2" d="M52.75,-312.02C52.75,-288.95 52.75,-252.5 52.75,-252.5 52.75,-252.5 232.07,-252.5 232.07,-252.5"/>
<polygon fill="black" stroke="black" points="232.07,-256 242.07,-252.5 232.07,-249 232.07,-256"/>
</g>
<!-- time -->
<g id="node8" class="node">
<title>time</title>
<polygon fill="lightgray" stroke="black" points="297.75,-204.5 243.75,-204.5 243.75,-168.5 297.75,-168.5 297.75,-204.5"/>
<text xml:space="preserve" text-anchor="middle" x="270.75" y="-181.45" font-family="Times New Roman,serif" font-size="14.00">time</text>
</g>
<!-- simple_tui&#45;&gt;time -->
<g id="edge9" class="edge">
<title>simple_tui&#45;&gt;time</title>
<path fill="none" stroke="black" stroke-dasharray="5,2" d="M31.75,-312.11C31.75,-272.05 31.75,-180.5 31.75,-180.5 31.75,-180.5 231.82,-180.5 231.82,-180.5"/>
<polygon fill="black" stroke="black" points="231.82,-184 241.82,-180.5 231.82,-177 231.82,-184"/>
</g>
<!-- simple_tui&#45;&gt;time -->
<g id="edge12" class="edge">
<title>simple_tui&#45;&gt;time</title>
<path fill="none" stroke="black" stroke-dasharray="5,2" d="M41.75,-312.17C41.75,-274.64 41.75,-192.5 41.75,-192.5 41.75,-192.5 232.07,-192.5 232.07,-192.5"/>
<polygon fill="black" stroke="black" points="232.07,-196 242.07,-192.5 232.07,-189 232.07,-196"/>
</g>
<!-- testing -->
<g id="node9" class="node">
<title>testing</title>
<polygon fill="lightgray" stroke="black" points="297.75,-132.5 243.75,-132.5 243.75,-96.5 297.75,-96.5 297.75,-132.5"/>
<text xml:space="preserve" text-anchor="middle" x="270.75" y="-109.45" font-family="Times New Roman,serif" font-size="14.00">testing</text>
</g>
<!-- simple_tui&#45;&gt;testing -->
<g id="edge10" class="edge">
<title>simple_tui&#45;&gt;testing</title>
<path fill="none" stroke="black" stroke-dasharray="5,2" d="M20.75,-312.08C20.75,-259.85 20.75,-114.5 20.75,-114.5 20.75,-114.5 232.01,-114.5 232.01,-114.5"/>
<polygon fill="black" stroke="black" points="232.01,-118 242.01,-114.5 232.01,-111 232.01,-118"/>
</g>
<!-- json -->
<g id="node10" class="node">
<title>json</title>
<polygon fill="lightgray" stroke="black" points="297.75,-60.5 243.75,-60.5 243.75,-24.5 297.75,-24.5 297.75,-60.5"/>
<text xml:space="preserve" text-anchor="middle" x="270.75" y="-37.45" font-family="Times New Roman,serif" font-size="14.00">json</text>
</g>
<!-- simple_tui&#45;&gt;json -->
<g id="edge13" class="edge">
<title>simple_tui&#45;&gt;json</title>
<path fill="none" stroke="black" stroke-dasharray="5,2" d="M10.75,-312.05C10.75,-248.48 10.75,-42.5 10.75,-42.5 10.75,-42.5 231.9,-42.5 231.9,-42.5"/>
<polygon fill="black" stroke="black" points="231.9,-46 241.9,-42.5 231.9,-39 231.9,-46"/>
</g>
</g>
</svg>
